# xmcd
#
# Track frame offsets:
#	150
#	19184
#	34690
#	50705
#	65852
#	79526
#	93476
#	109188
#	122032
#	137161
#	155821
#	174884
#
# Disc length: 2474 seconds
#
# Revision: 1
# Processed by: cddbd v1.5.2PL0 Copyright (c) Steve Scherf et al.
# Submitted via: audiograbber 1.83.01
#
DISCID=a309a80c
DTITLE=Ranch Hands, The - A tribute to George Strait
DYEAR=2004
DGENRE=Country
TTITLE0=I can still make Cheyenne
TTITLE1=King of the mountain
TTITLE2=Adalida
TTITLE3=The best day
TTITLE4=Round about way
TTITLE5=Today my world slipped away
TTITLE6=True
TTITLE7=Blue clear sky
TTITLE8=Lead on
TTITLE9=One night at a time
TTITLE10=Carrying your love with me
TTITLE11=We really shouldn't be doing this
EXTD=
EXTT0=
EXTT1=
EXTT2=
EXTT3=
EXTT4=
EXTT5=
EXTT6=
EXTT7=
EXTT8=
EXTT9=
EXTT10=
EXTT11=
PLAYORDER=
